<?xml version="1.0" encoding="utf-8"?>
<!-- Generator: Adobe Illustrator 24.1.2, SVG Export Plug-In . SVG Version: 6.00 Build 0)  -->
<svg version="1.1" id="Layer_1" xmlns="http://www.w3.org/2000/svg" xmlns:xlink="http://www.w3.org/1999/xlink" x="0px" y="0px"
	 viewBox="0 0 505 505" style="enable-background:new 0 0 505 505;" xml:space="preserve">
<style type="text/css">
	.st0{fill:#FFFFFF;}
	.st1{fill:#0052CC;}
</style>
<rect x="90" y="151.6" class="st0" width="325.7" height="195.5"/>
<path class="st1" d="M190.1,170c-20.7,3.1-35.8,21.8-33.8,41.8c-0.1,7.1,3,13.6,5.5,20.2c9.4,25.2-27.6,15.7-41.8,18.9
	c-20.1,2.9-35.2,22.6-34.1,42.6c0.4,18.9,15.4,36.2,34.1,39.2c18.7,3.8,39.1-7.3,46-25.1c7.8-13.7-0.3-40.1,12.5-41.6
	c6.7-0.8,17.2,23.1,29.3,38.5c6.9,8.8,12.1,19.8,22.8,24.6c19.5,10.2,46,1.4,55.5-18.4c6.4-11.3,3.9-24.6,4.7-37
	c0.3-7.6,11.4-11.1,15.9-4.8c13.7,18.1,22.3,42.3,40.3,57.1c15.3,10.8,37.7,9.4,51.4-3.4c14.6-12.6,18.1-35.8,8-52.2
	c-16-25.6-32.3-51.1-48.4-76.7c-7.4-11.9-14-18.9-25.1-22.4c-19-6.9-42,2.5-50.6,20.7c-6.4,11.5-3.7,24.9-4.6,37.3
	c-0.7,7.5-11.7,10.4-15.9,4.2c-10.1-15.4-19.6-31.3-29.8-46.7C222.8,173.7,205.7,166.9,190.1,170 M228.7,10
	C355.8-2.9,468.8,85.2,491.3,206.5c26.3,140.4-73.4,269.9-210.1,285.6c-129.3,15.3-245.4-74.5-267-198.6
	C-10.5,152.1,90.8,23.7,228.7,10"/>
<circle class="st0" cx="392.7" cy="179.6" r="15.8"/>
</svg>
